<svg xmlns="http://www.w3.org/2000/svg" viewBox="0 0 600 26" width="600" height="26"><path d="M2.0 0 Q0.8 8.8 1.5 17.6" stroke="#4A2C1F" stroke-opacity="0.8" stroke-width="1" fill="none" stroke-linecap="round"/><path d="M16.4 0 Q18.5 12.2 17.2 24.4" stroke="#4A2C1F" stroke-opacity="0.65" stroke-width="1.5" fill="none" stroke-linecap="round"/><path d="M30.9 0 Q30.4 13.0 30.7 26.0" stroke="#C59A5E" stroke-opacity="0.95" stroke-width="1.2" fill="none" stroke-linecap="round"/><path d="M45.0 0 Q43.7 13.0 44.5 26.0" stroke="#4A2C1F" stroke-opacity="0.5" stroke-width="1.5" fill="none" stroke-linecap="round"/><path d="M51.5 0 Q52.6 10.0 51.9 20.0" stroke="#4A2C1F" stroke-opacity="0.5" stroke-width="1.5" fill="none" stroke-linecap="round"/><path d="M62.7 0 Q62.6 13.0 62.7 26.0" stroke="#4A2C1F" stroke-opacity="0.65" stroke-width="1.2" fill="none" stroke-linecap="round"/><path d="M72.4 0 Q72.5 9.0 72.5 18.0" stroke="#4A2C1F" stroke-opacity="0.8" stroke-width="1" fill="none" stroke-linecap="round"/><path d="M83.1 0 Q81.9 8.2 82.6 16.5" stroke="#C59A5E" stroke-opacity="0.95" stroke-width="1" fill="none" stroke-linecap="round"/><path d="M90.0 0 Q89.5 4.0 89.8 7.9" stroke="#C59A5E" stroke-opacity="0.95" stroke-width="1.5" fill="none" stroke-linecap="round"/><path d="M97.5 0 Q98.0 6.7 97.7 13.5" stroke="#C59A5E" stroke-opacity="0.95" stroke-width="1.5" fill="none" stroke-linecap="round"/><path d="M107.4 0 Q107.0 8.4 107.2 16.9" stroke="#C59A5E" stroke-opacity="0.95" stroke-width="1.2" fill="none" stroke-linecap="round"/><path d="M115.2 0 Q113.7 12.7 114.6 25.4" stroke="#4A2C1F" stroke-opacity="0.65" stroke-width="1.2" fill="none" stroke-linecap="round"/><path d="M125.1 0 Q126.2 13.0 125.6 26.0" stroke="#C59A5E" stroke-opacity="0.95" stroke-width="1.5" fill="none" stroke-linecap="round"/><path d="M131.1 0 Q131.9 13.0 131.4 26.0" stroke="#4A2C1F" stroke-opacity="0.8" stroke-width="1.2" fill="none" stroke-linecap="round"/><path d="M137.6 0 Q139.7 13.0 138.4 26.0" stroke="#C59A5E" stroke-opacity="0.95" stroke-width="1.2" fill="none" stroke-linecap="round"/><path d="M149.9 0 Q148.2 13.0 149.2 26.0" stroke="#C59A5E" stroke-opacity="0.95" stroke-width="1.2" fill="none" stroke-linecap="round"/><path d="M159.6 0 Q158.6 13.0 159.2 26.0" stroke="#C59A5E" stroke-opacity="0.95" stroke-width="1" fill="none" stroke-linecap="round"/><path d="M170.1 0 Q169.0 11.6 169.7 23.2" stroke="#4A2C1F" stroke-opacity="0.5" stroke-width="1" fill="none" stroke-linecap="round"/><path d="M182.7 0 Q180.6 13.0 181.9 26.0" stroke="#4A2C1F" stroke-opacity="0.5" stroke-width="1.5" fill="none" stroke-linecap="round"/><path d="M191.7 0 Q191.1 11.9 191.5 23.8" stroke="#4A2C1F" stroke-opacity="0.65" stroke-width="1" fill="none" stroke-linecap="round"/><path d="M198.0 0 Q196.6 9.1 197.4 18.3" stroke="#C59A5E" stroke-opacity="0.95" stroke-width="1" fill="none" stroke-linecap="round"/><path d="M211.0 0 Q210.1 5.3 210.6 10.6" stroke="#C59A5E" stroke-opacity="0.95" stroke-width="1.2" fill="none" stroke-linecap="round"/><path d="M222.2 0 Q220.2 5.0 221.4 10.0" stroke="#C59A5E" stroke-opacity="0.95" stroke-width="1" fill="none" stroke-linecap="round"/><path d="M234.1 0 Q236.2 3.5 234.9 7.0" stroke="#C59A5E" stroke-opacity="0.95" stroke-width="1" fill="none" stroke-linecap="round"/><path d="M245.6 0 Q247.5 7.4 246.4 14.8" stroke="#C59A5E" stroke-opacity="0.95" stroke-width="1" fill="none" stroke-linecap="round"/><path d="M260.4 0 Q260.7 11.5 260.5 22.9" stroke="#C59A5E" stroke-opacity="0.95" stroke-width="1.2" fill="none" stroke-linecap="round"/><path d="M269.5 0 Q268.7 8.9 269.2 17.8" stroke="#4A2C1F" stroke-opacity="0.5" stroke-width="1" fill="none" stroke-linecap="round"/><path d="M282.3 0 Q280.8 5.3 281.7 10.7" stroke="#C59A5E" stroke-opacity="0.95" stroke-width="1" fill="none" stroke-linecap="round"/><path d="M291.5 0 Q293.6 5.6 292.3 11.2" stroke="#C59A5E" stroke-opacity="0.95" stroke-width="1.5" fill="none" stroke-linecap="round"/><path d="M302.5 0 Q303.2 3.5 302.8 7.0" stroke="#4A2C1F" stroke-opacity="0.5" stroke-width="1.5" fill="none" stroke-linecap="round"/><path d="M314.4 0 Q315.5 3.9 314.8 7.8" stroke="#C59A5E" stroke-opacity="0.95" stroke-width="1" fill="none" stroke-linecap="round"/><path d="M323.1 0 Q324.8 6.7 323.7 13.4" stroke="#4A2C1F" stroke-opacity="0.65" stroke-width="1.5" fill="none" stroke-linecap="round"/><path d="M329.6 0 Q329.0 4.5 329.3 9.0" stroke="#4A2C1F" stroke-opacity="0.8" stroke-width="1" fill="none" stroke-linecap="round"/><path d="M339.7 0 Q339.7 3.8 339.7 7.6" stroke="#4A2C1F" stroke-opacity="0.65" stroke-width="1" fill="none" stroke-linecap="round"/><path d="M352.1 0 Q353.3 7.4 352.6 14.8" stroke="#C59A5E" stroke-opacity="0.95" stroke-width="1" fill="none" stroke-linecap="round"/><path d="M363.4 0 Q362.6 6.9 363.1 13.8" stroke="#C59A5E" stroke-opacity="0.95" stroke-width="1" fill="none" stroke-linecap="round"/><path d="M373.3 0 Q372.5 5.5 373.0 11.0" stroke="#C59A5E" stroke-opacity="0.95" stroke-width="1" fill="none" stroke-linecap="round"/><path d="M385.0 0 Q385.4 9.0 385.2 18.0" stroke="#C59A5E" stroke-opacity="0.95" stroke-width="1" fill="none" stroke-linecap="round"/><path d="M392.4 0 Q394.4 11.8 393.2 23.7" stroke="#C59A5E" stroke-opacity="0.95" stroke-width="1" fill="none" stroke-linecap="round"/><path d="M399.8 0 Q399.5 13.0 399.7 26.0" stroke="#C59A5E" stroke-opacity="0.95" stroke-width="1.2" fill="none" stroke-linecap="round"/><path d="M408.5 0 Q408.9 13.0 408.7 26.0" stroke="#C59A5E" stroke-opacity="0.95" stroke-width="1.2" fill="none" stroke-linecap="round"/><path d="M421.9 0 Q423.2 12.2 422.4 24.4" stroke="#4A2C1F" stroke-opacity="0.8" stroke-width="1.5" fill="none" stroke-linecap="round"/><path d="M429.4 0 Q431.5 13.0 430.3 26.0" stroke="#C59A5E" stroke-opacity="0.95" stroke-width="1.5" fill="none" stroke-linecap="round"/><path d="M436.2 0 Q436.0 13.0 436.1 26.0" stroke="#4A2C1F" stroke-opacity="0.65" stroke-width="1" fill="none" stroke-linecap="round"/><path d="M442.8 0 Q441.7 13.0 442.4 26.0" stroke="#C59A5E" stroke-opacity="0.95" stroke-width="1.5" fill="none" stroke-linecap="round"/><path d="M448.9 0 Q448.2 10.6 448.6 21.3" stroke="#4A2C1F" stroke-opacity="0.65" stroke-width="1.5" fill="none" stroke-linecap="round"/><path d="M457.2 0 Q458.1 8.8 457.6 17.6" stroke="#4A2C1F" stroke-opacity="0.8" stroke-width="1.2" fill="none" stroke-linecap="round"/><path d="M468.3 0 Q469.4 8.0 468.7 16.0" stroke="#C59A5E" stroke-opacity="0.95" stroke-width="1" fill="none" stroke-linecap="round"/><path d="M481.6 0 Q483.5 10.4 482.4 20.9" stroke="#4A2C1F" stroke-opacity="0.65" stroke-width="1" fill="none" stroke-linecap="round"/><path d="M490.4 0 Q492.5 10.9 491.3 21.9" stroke="#C59A5E" stroke-opacity="0.95" stroke-width="1" fill="none" stroke-linecap="round"/><path d="M499.6 0 Q500.7 11.4 500.0 22.8" stroke="#4A2C1F" stroke-opacity="0.5" stroke-width="1" fill="none" stroke-linecap="round"/><path d="M508.0 0 Q509.6 13.0 508.6 26.0" stroke="#4A2C1F" stroke-opacity="0.8" stroke-width="1" fill="none" stroke-linecap="round"/><path d="M516.6 0 Q517.5 9.5 516.9 19.0" stroke="#4A2C1F" stroke-opacity="0.65" stroke-width="1.2" fill="none" stroke-linecap="round"/><path d="M529.6 0 Q528.8 10.7 529.3 21.3" stroke="#C59A5E" stroke-opacity="0.95" stroke-width="1.2" fill="none" stroke-linecap="round"/><path d="M540.4 0 Q538.5 9.1 539.6 18.3" stroke="#4A2C1F" stroke-opacity="0.5" stroke-width="1" fill="none" stroke-linecap="round"/><path d="M548.5 0 Q549.4 9.7 548.9 19.4" stroke="#4A2C1F" stroke-opacity="0.5" stroke-width="1" fill="none" stroke-linecap="round"/><path d="M555.2 0 Q553.5 12.7 554.6 25.4" stroke="#C59A5E" stroke-opacity="0.95" stroke-width="1.2" fill="none" stroke-linecap="round"/><path d="M568.3 0 Q570.3 10.4 569.1 20.9" stroke="#4A2C1F" stroke-opacity="0.5" stroke-width="1" fill="none" stroke-linecap="round"/><path d="M580.6 0 Q582.6 13.0 581.4 26.0" stroke="#C59A5E" stroke-opacity="0.95" stroke-width="1.5" fill="none" stroke-linecap="round"/><path d="M594.1 0 Q593.1 8.8 593.7 17.6" stroke="#4A2C1F" stroke-opacity="0.8" stroke-width="1.2" fill="none" stroke-linecap="round"/></svg>