<svg xmlns="http://www.w3.org/2000/svg" width="420" height="14" viewBox="0 0 420 14"><circle cx="190.0" cy="5.2" r="2.4" fill="#8E1B15" fill-opacity="0.81"/><circle cx="359.1" cy="0.8" r="2.4" fill="#C93A2C" fill-opacity="0.82"/><circle cx="257.9" cy="0.8" r="1.4" fill="#B3261E" fill-opacity="0.70"/><circle cx="226.3" cy="11.5" r="2.0" fill="#B3261E" fill-opacity="0.86"/><circle cx="166.4" cy="3.6" r="2.0" fill="#C93A2C" fill-opacity="0.88"/><circle cx="261.7" cy="10.2" r="0.7" fill="#B3261E" fill-opacity="0.66"/><circle cx="369.4" cy="5.9" r="2.4" fill="#8E1B15" fill-opacity="0.76"/><circle cx="248.2" cy="0.9" r="0.9" fill="#B3261E" fill-opacity="0.82"/><circle cx="278.2" cy="3.7" r="1.1" fill="#8E1B15" fill-opacity="1.00"/><circle cx="418.2" cy="10.4" r="2.0" fill="#B3261E" fill-opacity="0.76"/><circle cx="96.5" cy="1.7" r="0.7" fill="#C93A2C" fill-opacity="0.92"/><circle cx="168.2" cy="10.5" r="1.4" fill="#B3261E" fill-opacity="0.99"/><circle cx="355.9" cy="0.0" r="0.9" fill="#B3261E" fill-opacity="0.81"/><circle cx="411.8" cy="2.9" r="0.7" fill="#C93A2C" fill-opacity="0.87"/><circle cx="327.0" cy="1.5" r="0.7" fill="#B3261E" fill-opacity="0.77"/><circle cx="404.9" cy="8.7" r="0.7" fill="#B3261E" fill-opacity="0.74"/><circle cx="42.4" cy="0.1" r="2.4" fill="#8E1B15" fill-opacity="0.71"/><circle cx="234.9" cy="3.6" r="0.9" fill="#B3261E" fill-opacity="0.80"/><circle cx="161.2" cy="2.9" r="0.9" fill="#B3261E" fill-opacity="0.74"/><circle cx="407.8" cy="9.6" r="1.1" fill="#B3261E" fill-opacity="0.72"/><circle cx="165.6" cy="10.7" r="2.0" fill="#C93A2C" fill-opacity="0.69"/><circle cx="415.5" cy="1.0" r="1.1" fill="#B3261E" fill-opacity="0.92"/><circle cx="138.2" cy="1.8" r="0.7" fill="#B3261E" fill-opacity="0.68"/><circle cx="244.7" cy="1.3" r="1.7" fill="#B3261E" fill-opacity="0.78"/><circle cx="190.3" cy="13.0" r="1.4" fill="#C93A2C" fill-opacity="0.70"/><circle cx="162.2" cy="6.3" r="1.1" fill="#B3261E" fill-opacity="0.94"/><circle cx="104.8" cy="0.8" r="2.0" fill="#C93A2C" fill-opacity="0.72"/><circle cx="399.1" cy="11.3" r="1.7" fill="#B3261E" fill-opacity="0.80"/><circle cx="43.6" cy="0.1" r="1.1" fill="#B3261E" fill-opacity="0.91"/><circle cx="164.5" cy="3.2" r="1.7" fill="#8E1B15" fill-opacity="0.75"/><circle cx="73.7" cy="8.0" r="0.7" fill="#B3261E" fill-opacity="0.73"/><circle cx="234.9" cy="10.7" r="1.7" fill="#B3261E" fill-opacity="0.75"/><circle cx="385.3" cy="0.9" r="0.7" fill="#B3261E" fill-opacity="0.74"/><circle cx="187.2" cy="0.1" r="0.9" fill="#B3261E" fill-opacity="0.78"/><circle cx="240.3" cy="0.4" r="1.1" fill="#B3261E" fill-opacity="0.96"/><circle cx="411.8" cy="6.9" r="2.0" fill="#C93A2C" fill-opacity="0.85"/><circle cx="58.9" cy="0.0" r="0.7" fill="#8E1B15" fill-opacity="0.97"/><circle cx="294.4" cy="13.1" r="0.7" fill="#C93A2C" fill-opacity="0.87"/><circle cx="202.5" cy="8.2" r="1.1" fill="#B3261E" fill-opacity="1.00"/><circle cx="31.6" cy="5.0" r="2.0" fill="#B3261E" fill-opacity="0.97"/><circle cx="309.6" cy="7.7" r="2.4" fill="#B3261E" fill-opacity="0.77"/><circle cx="287.8" cy="11.7" r="2.4" fill="#8E1B15" fill-opacity="0.98"/><circle cx="12.7" cy="4.3" r="0.7" fill="#C93A2C" fill-opacity="0.88"/><circle cx="159.3" cy="0.0" r="0.7" fill="#B3261E" fill-opacity="0.68"/><circle cx="48.5" cy="1.4" r="1.4" fill="#B3261E" fill-opacity="0.79"/><circle cx="308.7" cy="5.6" r="1.4" fill="#8E1B15" fill-opacity="0.94"/><circle cx="35.2" cy="8.6" r="0.7" fill="#B3261E" fill-opacity="0.86"/><circle cx="202.0" cy="1.2" r="2.0" fill="#B3261E" fill-opacity="0.82"/><circle cx="258.1" cy="12.2" r="1.1" fill="#B3261E" fill-opacity="0.78"/><circle cx="60.2" cy="6.1" r="1.7" fill="#B3261E" fill-opacity="0.91"/><circle cx="143.9" cy="12.4" r="1.4" fill="#B3261E" fill-opacity="0.76"/><circle cx="279.7" cy="0.9" r="1.4" fill="#B3261E" fill-opacity="0.96"/><circle cx="161.5" cy="5.6" r="1.1" fill="#B3261E" fill-opacity="0.70"/><circle cx="208.5" cy="10.3" r="2.4" fill="#B3261E" fill-opacity="0.90"/><circle cx="399.0" cy="1.6" r="0.9" fill="#B3261E" fill-opacity="0.81"/><circle cx="115.6" cy="1.0" r="1.4" fill="#8E1B15" fill-opacity="0.87"/><circle cx="207.4" cy="2.0" r="2.4" fill="#C93A2C" fill-opacity="0.81"/><circle cx="31.4" cy="0.0" r="2.4" fill="#C93A2C" fill-opacity="0.66"/><circle cx="297.6" cy="5.4" r="1.1" fill="#C93A2C" fill-opacity="0.66"/><circle cx="57.1" cy="3.7" r="0.7" fill="#B3261E" fill-opacity="0.73"/><circle cx="59.2" cy="0.1" r="2.0" fill="#B3261E" fill-opacity="0.81"/><circle cx="264.6" cy="6.8" r="2.4" fill="#B3261E" fill-opacity="0.99"/><circle cx="287.5" cy="0.9" r="1.4" fill="#B3261E" fill-opacity="0.71"/><circle cx="4.5" cy="3.9" r="2.0" fill="#B3261E" fill-opacity="0.71"/><circle cx="114.4" cy="2.3" r="2.0" fill="#C93A2C" fill-opacity="0.83"/><circle cx="418.7" cy="0.6" r="2.4" fill="#B3261E" fill-opacity="0.68"/><circle cx="391.7" cy="8.1" r="0.9" fill="#8E1B15" fill-opacity="0.81"/><circle cx="262.7" cy="11.9" r="1.4" fill="#C93A2C" fill-opacity="0.85"/><circle cx="369.3" cy="9.5" r="1.1" fill="#8E1B15" fill-opacity="0.76"/><circle cx="412.6" cy="0.3" r="2.4" fill="#B3261E" fill-opacity="0.72"/><circle cx="378.0" cy="13.5" r="1.1" fill="#C93A2C" fill-opacity="0.99"/><circle cx="391.6" cy="1.4" r="2.0" fill="#B3261E" fill-opacity="0.77"/><circle cx="34.8" cy="3.5" r="1.7" fill="#8E1B15" fill-opacity="0.92"/><circle cx="204.7" cy="0.0" r="2.4" fill="#B3261E" fill-opacity="0.80"/><circle cx="14.7" cy="4.8" r="2.0" fill="#B3261E" fill-opacity="0.81"/><circle cx="419.9" cy="11.7" r="1.7" fill="#8E1B15" fill-opacity="0.98"/><circle cx="206.9" cy="12.8" r="0.7" fill="#B3261E" fill-opacity="0.80"/><circle cx="234.7" cy="10.2" r="1.7" fill="#B3261E" fill-opacity="0.83"/><circle cx="354.3" cy="5.2" r="1.1" fill="#8E1B15" fill-opacity="0.98"/><circle cx="365.4" cy="6.0" r="1.1" fill="#B3261E" fill-opacity="0.99"/><circle cx="220.2" cy="5.4" r="0.9" fill="#8E1B15" fill-opacity="0.84"/><circle cx="211.3" cy="6.0" r="0.7" fill="#C93A2C" fill-opacity="0.99"/><circle cx="216.7" cy="3.0" r="2.4" fill="#C93A2C" fill-opacity="0.69"/><circle cx="39.2" cy="0.7" r="1.7" fill="#8E1B15" fill-opacity="0.79"/><circle cx="401.9" cy="12.2" r="1.1" fill="#B3261E" fill-opacity="0.82"/><circle cx="53.3" cy="3.4" r="2.4" fill="#8E1B15" fill-opacity="0.83"/><circle cx="45.6" cy="3.2" r="0.7" fill="#B3261E" fill-opacity="0.70"/><circle cx="327.3" cy="0.0" r="0.9" fill="#B3261E" fill-opacity="0.73"/><circle cx="288.6" cy="2.0" r="1.1" fill="#B3261E" fill-opacity="0.87"/><circle cx="44.1" cy="8.2" r="0.7" fill="#C93A2C" fill-opacity="0.87"/><circle cx="301.4" cy="7.7" r="1.4" fill="#B3261E" fill-opacity="0.78"/><circle cx="173.6" cy="4.7" r="0.9" fill="#C93A2C" fill-opacity="0.72"/><circle cx="265.2" cy="6.5" r="1.7" fill="#B3261E" fill-opacity="0.95"/><circle cx="256.9" cy="10.8" r="0.9" fill="#B3261E" fill-opacity="0.97"/><circle cx="132.7" cy="2.0" r="0.9" fill="#B3261E" fill-opacity="0.92"/><circle cx="81.7" cy="0.3" r="0.9" fill="#B3261E" fill-opacity="0.90"/><circle cx="109.0" cy="0.3" r="2.4" fill="#8E1B15" fill-opacity="0.84"/><circle cx="296.0" cy="0.9" r="2.0" fill="#B3261E" fill-opacity="0.68"/><circle cx="239.4" cy="2.4" r="2.4" fill="#B3261E" fill-opacity="0.69"/><circle cx="212.4" cy="8.7" r="1.7" fill="#B3261E" fill-opacity="0.93"/><circle cx="202.5" cy="0.0" r="2.4" fill="#C93A2C" fill-opacity="0.86"/><circle cx="380.1" cy="4.0" r="0.9" fill="#B3261E" fill-opacity="0.69"/><circle cx="72.4" cy="0.6" r="1.1" fill="#B3261E" fill-opacity="0.85"/><circle cx="56.5" cy="7.3" r="0.7" fill="#B3261E" fill-opacity="0.76"/><circle cx="196.1" cy="4.5" r="1.4" fill="#B3261E" fill-opacity="0.86"/><circle cx="5.6" cy="7.7" r="2.4" fill="#B3261E" fill-opacity="0.71"/><circle cx="190.7" cy="8.4" r="1.4" fill="#B3261E" fill-opacity="0.86"/><circle cx="39.8" cy="9.4" r="1.1" fill="#B3261E" fill-opacity="0.93"/><circle cx="296.0" cy="10.8" r="2.0" fill="#8E1B15" fill-opacity="0.85"/><circle cx="80.2" cy="5.6" r="1.1" fill="#B3261E" fill-opacity="0.75"/><circle cx="48.8" cy="8.4" r="0.9" fill="#8E1B15" fill-opacity="0.70"/><circle cx="138.6" cy="4.9" r="1.1" fill="#8E1B15" fill-opacity="0.92"/><circle cx="170.4" cy="8.1" r="0.7" fill="#B3261E" fill-opacity="0.76"/><circle cx="42.4" cy="11.4" r="2.0" fill="#C93A2C" fill-opacity="0.67"/><circle cx="114.6" cy="13.1" r="1.1" fill="#B3261E" fill-opacity="0.73"/><circle cx="170.6" cy="0.8" r="0.7" fill="#8E1B15" fill-opacity="0.83"/><circle cx="209.0" cy="1.0" r="0.7" fill="#8E1B15" fill-opacity="0.99"/><circle cx="9.6" cy="6.1" r="2.0" fill="#B3261E" fill-opacity="0.74"/><circle cx="168.7" cy="0.1" r="0.9" fill="#8E1B15" fill-opacity="0.65"/><circle cx="108.6" cy="1.6" r="1.1" fill="#C93A2C" fill-opacity="0.84"/><circle cx="174.6" cy="4.6" r="2.4" fill="#B3261E" fill-opacity="0.87"/><circle cx="340.0" cy="0.2" r="1.7" fill="#B3261E" fill-opacity="0.79"/><circle cx="394.2" cy="2.8" r="0.9" fill="#8E1B15" fill-opacity="0.84"/><circle cx="250.6" cy="3.3" r="1.4" fill="#8E1B15" fill-opacity="0.75"/><circle cx="167.4" cy="1.9" r="1.7" fill="#B3261E" fill-opacity="0.82"/><circle cx="113.3" cy="12.4" r="2.0" fill="#B3261E" fill-opacity="0.66"/><circle cx="324.4" cy="5.6" r="2.0" fill="#B3261E" fill-opacity="0.79"/><circle cx="287.4" cy="0.1" r="1.1" fill="#8E1B15" fill-opacity="0.67"/><circle cx="415.3" cy="12.7" r="0.7" fill="#B3261E" fill-opacity="0.80"/><circle cx="200.6" cy="13.4" r="0.9" fill="#B3261E" fill-opacity="0.83"/><circle cx="393.7" cy="8.1" r="1.4" fill="#B3261E" fill-opacity="0.99"/><circle cx="343.0" cy="5.9" r="0.7" fill="#B3261E" fill-opacity="0.87"/><circle cx="191.4" cy="0.9" r="0.7" fill="#B3261E" fill-opacity="0.83"/><circle cx="52.2" cy="3.5" r="2.0" fill="#8E1B15" fill-opacity="0.81"/><circle cx="110.1" cy="5.6" r="1.4" fill="#B3261E" fill-opacity="0.92"/><circle cx="222.9" cy="13.9" r="1.1" fill="#B3261E" fill-opacity="0.73"/><circle cx="47.8" cy="11.5" r="2.4" fill="#C93A2C" fill-opacity="0.87"/><circle cx="150.9" cy="1.5" r="2.0" fill="#C93A2C" fill-opacity="0.89"/><circle cx="79.8" cy="1.6" r="0.9" fill="#B3261E" fill-opacity="0.98"/><circle cx="210.9" cy="6.8" r="0.9" fill="#B3261E" fill-opacity="0.87"/><circle cx="4.0" cy="1.4" r="0.7" fill="#C93A2C" fill-opacity="0.66"/><circle cx="93.5" cy="1.6" r="2.4" fill="#B3261E" fill-opacity="0.97"/><circle cx="67.6" cy="1.2" r="1.1" fill="#8E1B15" fill-opacity="0.82"/><circle cx="88.5" cy="2.3" r="2.0" fill="#B3261E" fill-opacity="0.94"/><circle cx="31.2" cy="0.4" r="2.4" fill="#C93A2C" fill-opacity="0.94"/><circle cx="323.0" cy="3.5" r="2.0" fill="#B3261E" fill-opacity="0.79"/><circle cx="63.3" cy="0.6" r="2.4" fill="#C93A2C" fill-opacity="0.76"/><circle cx="230.4" cy="8.5" r="0.9" fill="#8E1B15" fill-opacity="0.88"/><circle cx="243.8" cy="3.8" r="1.1" fill="#B3261E" fill-opacity="0.84"/><circle cx="181.4" cy="5.4" r="2.4" fill="#8E1B15" fill-opacity="0.75"/><circle cx="325.7" cy="0.2" r="0.9" fill="#C93A2C" fill-opacity="0.68"/><circle cx="127.6" cy="8.1" r="2.0" fill="#B3261E" fill-opacity="0.75"/><circle cx="60.0" cy="2.4" r="2.0" fill="#B3261E" fill-opacity="0.78"/><circle cx="49.3" cy="7.8" r="1.7" fill="#C93A2C" fill-opacity="0.97"/><circle cx="394.8" cy="12.0" r="1.4" fill="#C93A2C" fill-opacity="0.93"/><circle cx="128.0" cy="2.0" r="1.4" fill="#C93A2C" fill-opacity="0.74"/><circle cx="151.9" cy="2.5" r="1.1" fill="#8E1B15" fill-opacity="0.85"/><circle cx="334.4" cy="8.4" r="1.1" fill="#8E1B15" fill-opacity="0.84"/><circle cx="351.3" cy="5.3" r="0.9" fill="#B3261E" fill-opacity="0.92"/><circle cx="370.0" cy="1.6" r="0.7" fill="#B3261E" fill-opacity="0.83"/><circle cx="228.5" cy="5.3" r="0.7" fill="#8E1B15" fill-opacity="0.67"/><circle cx="229.7" cy="9.3" r="0.7" fill="#B3261E" fill-opacity="0.68"/><circle cx="309.6" cy="11.7" r="0.7" fill="#B3261E" fill-opacity="0.87"/><circle cx="60.4" cy="8.5" r="2.0" fill="#8E1B15" fill-opacity="0.74"/><circle cx="92.6" cy="8.9" r="1.7" fill="#B3261E" fill-opacity="0.92"/><circle cx="165.6" cy="2.2" r="1.1" fill="#B3261E" fill-opacity="0.82"/><circle cx="225.7" cy="8.0" r="2.0" fill="#C93A2C" fill-opacity="0.97"/><circle cx="172.5" cy="10.1" r="2.0" fill="#B3261E" fill-opacity="0.95"/><circle cx="338.5" cy="10.3" r="1.4" fill="#C93A2C" fill-opacity="0.87"/><circle cx="220.0" cy="7.8" r="2.4" fill="#B3261E" fill-opacity="0.80"/><circle cx="176.6" cy="0.5" r="2.0" fill="#B3261E" fill-opacity="1.00"/><circle cx="157.7" cy="0.7" r="0.9" fill="#8E1B15" fill-opacity="0.80"/><circle cx="122.7" cy="13.3" r="0.7" fill="#8E1B15" fill-opacity="0.76"/><circle cx="48.2" cy="6.7" r="2.4" fill="#B3261E" fill-opacity="0.97"/><circle cx="316.3" cy="0.0" r="1.4" fill="#B3261E" fill-opacity="0.76"/><circle cx="83.0" cy="2.5" r="1.7" fill="#B3261E" fill-opacity="0.86"/><circle cx="198.2" cy="4.4" r="1.4" fill="#B3261E" fill-opacity="0.96"/><circle cx="169.0" cy="11.9" r="1.1" fill="#C93A2C" fill-opacity="0.98"/><circle cx="231.2" cy="10.7" r="1.4" fill="#8E1B15" fill-opacity="0.97"/><circle cx="143.7" cy="5.0" r="0.7" fill="#8E1B15" fill-opacity="0.95"/><circle cx="167.8" cy="1.0" r="0.9" fill="#8E1B15" fill-opacity="0.99"/><circle cx="333.8" cy="9.1" r="2.4" fill="#B3261E" fill-opacity="0.88"/><circle cx="99.8" cy="0.0" r="1.4" fill="#B3261E" fill-opacity="0.81"/><circle cx="103.6" cy="3.2" r="2.4" fill="#B3261E" fill-opacity="0.80"/><circle cx="324.2" cy="0.5" r="2.4" fill="#C93A2C" fill-opacity="0.70"/><circle cx="311.5" cy="6.2" r="1.7" fill="#C93A2C" fill-opacity="0.67"/><circle cx="240.2" cy="0.7" r="0.9" fill="#B3261E" fill-opacity="0.94"/><circle cx="34.6" cy="1.5" r="2.0" fill="#C93A2C" fill-opacity="0.68"/><circle cx="201.6" cy="3.9" r="2.0" fill="#C93A2C" fill-opacity="0.84"/><circle cx="212.5" cy="0.0" r="0.9" fill="#8E1B15" fill-opacity="0.72"/><circle cx="286.5" cy="9.2" r="1.4" fill="#B3261E" fill-opacity="0.66"/><circle cx="173.5" cy="4.2" r="2.4" fill="#B3261E" fill-opacity="0.76"/><circle cx="170.3" cy="5.2" r="1.4" fill="#B3261E" fill-opacity="0.78"/><circle cx="288.6" cy="0.3" r="1.4" fill="#8E1B15" fill-opacity="0.91"/><circle cx="329.5" cy="0.4" r="1.4" fill="#B3261E" fill-opacity="0.95"/><circle cx="298.9" cy="4.0" r="1.1" fill="#C93A2C" fill-opacity="0.69"/><circle cx="324.2" cy="10.7" r="2.4" fill="#B3261E" fill-opacity="0.97"/><circle cx="63.9" cy="6.3" r="1.7" fill="#B3261E" fill-opacity="0.98"/><circle cx="317.1" cy="5.2" r="0.7" fill="#B3261E" fill-opacity="0.72"/><circle cx="158.2" cy="0.3" r="1.1" fill="#B3261E" fill-opacity="0.85"/><circle cx="304.0" cy="2.1" r="2.4" fill="#8E1B15" fill-opacity="0.68"/><circle cx="59.1" cy="0.3" r="2.0" fill="#B3261E" fill-opacity="0.71"/><circle cx="169.0" cy="10.3" r="1.7" fill="#B3261E" fill-opacity="0.69"/><circle cx="13.6" cy="13.7" r="1.4" fill="#8E1B15" fill-opacity="0.92"/><circle cx="143.5" cy="10.1" r="1.7" fill="#B3261E" fill-opacity="0.88"/><circle cx="322.1" cy="10.0" r="1.4" fill="#8E1B15" fill-opacity="0.77"/><circle cx="173.1" cy="0.0" r="1.4" fill="#C93A2C" fill-opacity="0.89"/><circle cx="412.4" cy="9.4" r="2.0" fill="#C93A2C" fill-opacity="0.84"/><circle cx="109.5" cy="0.8" r="1.1" fill="#8E1B15" fill-opacity="0.69"/><circle cx="158.6" cy="4.4" r="2.4" fill="#B3261E" fill-opacity="0.94"/><circle cx="256.8" cy="0.6" r="2.4" fill="#C93A2C" fill-opacity="0.97"/><circle cx="230.3" cy="2.4" r="1.7" fill="#C93A2C" fill-opacity="0.70"/><circle cx="299.6" cy="13.7" r="1.7" fill="#B3261E" fill-opacity="0.85"/><circle cx="11.2" cy="6.9" r="2.4" fill="#B3261E" fill-opacity="0.70"/><circle cx="200.7" cy="3.2" r="1.1" fill="#B3261E" fill-opacity="0.68"/><circle cx="366.5" cy="1.5" r="0.7" fill="#8E1B15" fill-opacity="0.99"/><circle cx="57.0" cy="11.8" r="1.7" fill="#C93A2C" fill-opacity="0.85"/><circle cx="235.3" cy="1.5" r="2.0" fill="#B3261E" fill-opacity="0.86"/><circle cx="51.5" cy="10.1" r="1.1" fill="#B3261E" fill-opacity="0.73"/><circle cx="240.9" cy="10.2" r="0.9" fill="#C93A2C" fill-opacity="0.84"/><circle cx="32.0" cy="0.0" r="0.9" fill="#B3261E" fill-opacity="0.76"/><circle cx="281.9" cy="8.3" r="1.4" fill="#C93A2C" fill-opacity="0.86"/><circle cx="337.6" cy="0.0" r="0.9" fill="#8E1B15" fill-opacity="0.81"/><circle cx="60.1" cy="2.8" r="1.7" fill="#8E1B15" fill-opacity="0.71"/><circle cx="218.3" cy="1.5" r="1.7" fill="#B3261E" fill-opacity="0.67"/><circle cx="329.3" cy="8.0" r="2.4" fill="#B3261E" fill-opacity="0.79"/><circle cx="209.0" cy="0.3" r="1.1" fill="#8E1B15" fill-opacity="0.96"/><circle cx="383.5" cy="5.3" r="1.4" fill="#B3261E" fill-opacity="0.82"/><circle cx="417.7" cy="10.4" r="2.4" fill="#8E1B15" fill-opacity="0.94"/><circle cx="49.3" cy="0.4" r="1.7" fill="#B3261E" fill-opacity="0.83"/><circle cx="181.5" cy="11.8" r="1.1" fill="#B3261E" fill-opacity="0.75"/><circle cx="258.8" cy="3.4" r="1.4" fill="#C93A2C" fill-opacity="0.76"/><circle cx="331.6" cy="11.3" r="0.7" fill="#B3261E" fill-opacity="0.69"/><circle cx="187.7" cy="4.3" r="1.4" fill="#B3261E" fill-opacity="0.82"/><circle cx="44.3" cy="11.9" r="1.7" fill="#B3261E" fill-opacity="0.88"/><circle cx="394.9" cy="11.3" r="2.0" fill="#B3261E" fill-opacity="0.95"/><circle cx="177.0" cy="9.7" r="0.9" fill="#8E1B15" fill-opacity="0.85"/><circle cx="379.4" cy="0.3" r="2.4" fill="#B3261E" fill-opacity="0.69"/><circle cx="225.8" cy="12.9" r="0.7" fill="#B3261E" fill-opacity="0.74"/><circle cx="125.7" cy="2.1" r="0.7" fill="#8E1B15" fill-opacity="0.96"/><circle cx="342.5" cy="2.9" r="1.1" fill="#C93A2C" fill-opacity="0.73"/><circle cx="128.6" cy="3.7" r="1.1" fill="#B3261E" fill-opacity="0.76"/><circle cx="60.2" cy="9.1" r="2.4" fill="#8E1B15" fill-opacity="0.96"/><circle cx="85.1" cy="10.8" r="2.0" fill="#B3261E" fill-opacity="0.72"/><circle cx="351.9" cy="2.4" r="1.4" fill="#B3261E" fill-opacity="0.71"/><circle cx="369.5" cy="13.9" r="0.9" fill="#C93A2C" fill-opacity="0.87"/><circle cx="80.4" cy="11.3" r="0.7" fill="#B3261E" fill-opacity="0.76"/><circle cx="343.4" cy="13.1" r="1.1" fill="#8E1B15" fill-opacity="0.90"/><circle cx="56.6" cy="7.6" r="2.4" fill="#8E1B15" fill-opacity="0.80"/><circle cx="71.1" cy="10.9" r="0.7" fill="#B3261E" fill-opacity="0.74"/><circle cx="302.5" cy="4.3" r="1.1" fill="#B3261E" fill-opacity="0.78"/><circle cx="278.0" cy="11.4" r="1.7" fill="#C93A2C" fill-opacity="0.73"/><circle cx="126.4" cy="12.3" r="2.0" fill="#B3261E" fill-opacity="0.75"/><circle cx="268.8" cy="0.2" r="0.7" fill="#8E1B15" fill-opacity="0.97"/><circle cx="31.0" cy="11.9" r="0.7" fill="#C93A2C" fill-opacity="0.86"/><circle cx="225.6" cy="3.2" r="1.7" fill="#B3261E" fill-opacity="0.71"/><circle cx="415.1" cy="0.8" r="0.9" fill="#B3261E" fill-opacity="0.91"/><circle cx="12.1" cy="9.4" r="0.9" fill="#B3261E" fill-opacity="0.87"/><circle cx="384.9" cy="5.6" r="0.7" fill="#8E1B15" fill-opacity="0.67"/><circle cx="26.9" cy="9.1" r="1.1" fill="#B3261E" fill-opacity="0.88"/><circle cx="328.9" cy="4.6" r="1.7" fill="#C93A2C" fill-opacity="0.91"/><circle cx="223.3" cy="5.8" r="2.4" fill="#B3261E" fill-opacity="0.69"/><circle cx="182.9" cy="7.1" r="1.7" fill="#B3261E" fill-opacity="0.93"/><circle cx="332.3" cy="1.2" r="1.4" fill="#C93A2C" fill-opacity="0.73"/><circle cx="243.6" cy="4.3" r="0.7" fill="#B3261E" fill-opacity="0.86"/><circle cx="300.2" cy="5.4" r="2.4" fill="#B3261E" fill-opacity="0.76"/><circle cx="255.5" cy="6.0" r="2.4" fill="#8E1B15" fill-opacity="0.83"/><circle cx="303.7" cy="10.8" r="0.7" fill="#B3261E" fill-opacity="0.69"/><circle cx="74.9" cy="6.6" r="1.7" fill="#B3261E" fill-opacity="0.87"/><circle cx="22.7" cy="3.3" r="2.0" fill="#B3261E" fill-opacity="0.94"/><circle cx="310.2" cy="9.2" r="2.4" fill="#C93A2C" fill-opacity="0.82"/><circle cx="273.0" cy="4.5" r="1.4" fill="#B3261E" fill-opacity="0.74"/><circle cx="208.7" cy="6.9" r="1.7" fill="#8E1B15" fill-opacity="0.67"/><circle cx="172.5" cy="2.5" r="0.9" fill="#B3261E" fill-opacity="0.69"/><circle cx="317.3" cy="5.9" r="0.9" fill="#B3261E" fill-opacity="0.91"/><circle cx="219.1" cy="13.7" r="0.7" fill="#B3261E" fill-opacity="0.79"/><circle cx="220.7" cy="0.2" r="1.7" fill="#B3261E" fill-opacity="0.82"/><circle cx="392.9" cy="13.3" r="2.0" fill="#C93A2C" fill-opacity="0.73"/><circle cx="106.3" cy="5.1" r="0.9" fill="#8E1B15" fill-opacity="0.81"/><circle cx="391.6" cy="2.5" r="1.1" fill="#C93A2C" fill-opacity="0.73"/><circle cx="67.4" cy="5.6" r="0.7" fill="#B3261E" fill-opacity="0.85"/><circle cx="383.0" cy="11.4" r="0.9" fill="#8E1B15" fill-opacity="0.95"/><circle cx="392.9" cy="1.0" r="1.4" fill="#B3261E" fill-opacity="0.73"/><circle cx="145.9" cy="0.8" r="1.7" fill="#B3261E" fill-opacity="0.82"/><circle cx="168.1" cy="5.8" r="2.4" fill="#B3261E" fill-opacity="0.82"/><circle cx="205.9" cy="6.3" r="0.9" fill="#8E1B15" fill-opacity="0.72"/><circle cx="160.8" cy="0.2" r="2.0" fill="#B3261E" fill-opacity="0.78"/><circle cx="115.3" cy="0.0" r="0.9" fill="#B3261E" fill-opacity="0.83"/><circle cx="238.3" cy="6.7" r="0.9" fill="#B3261E" fill-opacity="0.69"/><circle cx="24.0" cy="8.2" r="2.4" fill="#B3261E" fill-opacity="0.70"/><circle cx="101.2" cy="10.4" r="0.7" fill="#B3261E" fill-opacity="1.00"/><circle cx="352.3" cy="3.6" r="2.4" fill="#8E1B15" fill-opacity="0.76"/><circle cx="323.7" cy="4.6" r="0.7" fill="#B3261E" fill-opacity="0.79"/><circle cx="100.1" cy="0.1" r="0.9" fill="#C93A2C" fill-opacity="0.86"/><circle cx="13.3" cy="1.9" r="1.4" fill="#8E1B15" fill-opacity="0.84"/><circle cx="57.1" cy="7.8" r="1.1" fill="#B3261E" fill-opacity="0.90"/><circle cx="279.8" cy="0.5" r="0.9" fill="#B3261E" fill-opacity="0.84"/><circle cx="188.7" cy="0.5" r="1.7" fill="#B3261E" fill-opacity="0.73"/><circle cx="122.7" cy="2.3" r="0.9" fill="#B3261E" fill-opacity="0.66"/><circle cx="10.3" cy="6.4" r="1.7" fill="#B3261E" fill-opacity="0.93"/><circle cx="409.8" cy="1.8" r="2.0" fill="#B3261E" fill-opacity="0.97"/><circle cx="90.8" cy="7.4" r="2.0" fill="#B3261E" fill-opacity="0.98"/><circle cx="364.7" cy="1.2" r="2.0" fill="#B3261E" fill-opacity="0.68"/><circle cx="179.6" cy="2.9" r="0.7" fill="#8E1B15" fill-opacity="0.78"/><circle cx="137.8" cy="4.3" r="1.1" fill="#B3261E" fill-opacity="0.71"/><circle cx="169.0" cy="4.0" r="0.9" fill="#B3261E" fill-opacity="0.88"/><circle cx="100.7" cy="0.2" r="1.1" fill="#8E1B15" fill-opacity="0.93"/><circle cx="200.9" cy="1.4" r="2.4" fill="#C93A2C" fill-opacity="0.76"/><circle cx="384.1" cy="11.8" r="0.7" fill="#B3261E" fill-opacity="0.97"/><circle cx="383.2" cy="1.5" r="1.4" fill="#8E1B15" fill-opacity="0.95"/><circle cx="126.0" cy="8.0" r="1.1" fill="#B3261E" fill-opacity="0.66"/><circle cx="145.8" cy="11.5" r="1.7" fill="#B3261E" fill-opacity="0.74"/><circle cx="280.6" cy="0.8" r="1.4" fill="#8E1B15" fill-opacity="0.87"/><circle cx="401.0" cy="2.5" r="1.7" fill="#B3261E" fill-opacity="0.92"/><circle cx="263.5" cy="6.2" r="1.4" fill="#C93A2C" fill-opacity="0.80"/><circle cx="116.0" cy="10.2" r="1.4" fill="#8E1B15" fill-opacity="0.99"/><circle cx="161.7" cy="9.7" r="2.0" fill="#C93A2C" fill-opacity="0.75"/><circle cx="207.9" cy="3.9" r="0.7" fill="#B3261E" fill-opacity="0.86"/><circle cx="113.3" cy="1.4" r="0.9" fill="#B3261E" fill-opacity="0.83"/><circle cx="389.1" cy="13.5" r="0.7" fill="#B3261E" fill-opacity="0.84"/><circle cx="356.6" cy="8.9" r="0.7" fill="#C93A2C" fill-opacity="0.94"/><circle cx="371.3" cy="7.5" r="2.4" fill="#B3261E" fill-opacity="0.74"/><circle cx="43.6" cy="0.0" r="2.4" fill="#B3261E" fill-opacity="0.89"/><circle cx="288.4" cy="13.2" r="2.4" fill="#B3261E" fill-opacity="0.71"/><circle cx="261.1" cy="4.2" r="1.7" fill="#B3261E" fill-opacity="0.78"/><circle cx="120.0" cy="8.6" r="1.7" fill="#8E1B15" fill-opacity="0.73"/><circle cx="104.7" cy="2.1" r="0.9" fill="#C93A2C" fill-opacity="0.91"/><circle cx="368.5" cy="13.7" r="2.4" fill="#B3261E" fill-opacity="0.96"/><circle cx="130.3" cy="10.6" r="1.7" fill="#8E1B15" fill-opacity="0.66"/><circle cx="261.1" cy="3.1" r="1.4" fill="#B3261E" fill-opacity="0.77"/><circle cx="166.9" cy="8.4" r="2.0" fill="#8E1B15" fill-opacity="0.74"/><circle cx="266.6" cy="2.6" r="2.0" fill="#B3261E" fill-opacity="0.71"/><circle cx="359.5" cy="0.9" r="1.7" fill="#B3261E" fill-opacity="0.85"/><circle cx="176.6" cy="7.8" r="1.7" fill="#B3261E" fill-opacity="0.93"/><circle cx="52.6" cy="2.7" r="2.0" fill="#B3261E" fill-opacity="0.73"/><circle cx="77.6" cy="0.0" r="1.7" fill="#B3261E" fill-opacity="0.74"/><circle cx="113.9" cy="1.3" r="2.0" fill="#8E1B15" fill-opacity="0.79"/><circle cx="285.3" cy="0.5" r="0.9" fill="#B3261E" fill-opacity="0.95"/><circle cx="81.4" cy="2.4" r="1.7" fill="#B3261E" fill-opacity="0.79"/><circle cx="380.0" cy="10.3" r="2.4" fill="#8E1B15" fill-opacity="0.71"/><circle cx="28.3" cy="3.5" r="2.4" fill="#B3261E" fill-opacity="0.73"/><circle cx="303.2" cy="3.1" r="0.9" fill="#C93A2C" fill-opacity="0.79"/><circle cx="291.5" cy="5.0" r="2.4" fill="#B3261E" fill-opacity="0.80"/><circle cx="350.2" cy="5.2" r="1.1" fill="#8E1B15" fill-opacity="0.80"/><circle cx="63.8" cy="11.4" r="1.1" fill="#C93A2C" fill-opacity="0.85"/><circle cx="115.0" cy="3.0" r="1.1" fill="#B3261E" fill-opacity="0.68"/><circle cx="84.5" cy="5.1" r="1.7" fill="#B3261E" fill-opacity="0.70"/><circle cx="3.0" cy="8.8" r="2.0" fill="#B3261E" fill-opacity="0.65"/><circle cx="141.2" cy="0.5" r="2.4" fill="#B3261E" fill-opacity="1.00"/><circle cx="171.6" cy="0.0" r="1.1" fill="#C93A2C" fill-opacity="0.79"/><circle cx="24.2" cy="5.1" r="2.0" fill="#C93A2C" fill-opacity="0.74"/><circle cx="79.2" cy="1.7" r="0.9" fill="#8E1B15" fill-opacity="0.85"/><circle cx="395.1" cy="0.1" r="2.4" fill="#B3261E" fill-opacity="0.98"/><circle cx="226.4" cy="7.2" r="1.1" fill="#B3261E" fill-opacity="0.66"/><circle cx="233.4" cy="0.1" r="1.4" fill="#B3261E" fill-opacity="0.96"/><circle cx="26.8" cy="2.5" r="2.4" fill="#C93A2C" fill-opacity="0.74"/><circle cx="102.9" cy="12.3" r="1.4" fill="#8E1B15" fill-opacity="0.76"/><circle cx="223.2" cy="7.0" r="2.4" fill="#B3261E" fill-opacity="0.98"/><circle cx="202.5" cy="10.4" r="1.4" fill="#B3261E" fill-opacity="0.96"/><circle cx="262.0" cy="0.0" r="0.9" fill="#B3261E" fill-opacity="0.76"/><circle cx="304.2" cy="4.4" r="1.1" fill="#B3261E" fill-opacity="0.87"/><circle cx="188.9" cy="1.9" r="0.7" fill="#B3261E" fill-opacity="0.86"/><circle cx="111.1" cy="1.0" r="0.9" fill="#B3261E" fill-opacity="0.67"/><circle cx="54.9" cy="1.9" r="0.9" fill="#B3261E" fill-opacity="0.77"/><circle cx="65.4" cy="2.6" r="0.9" fill="#8E1B15" fill-opacity="0.66"/><circle cx="167.9" cy="0.1" r="0.7" fill="#B3261E" fill-opacity="0.98"/><circle cx="352.7" cy="8.8" r="0.7" fill="#B3261E" fill-opacity="0.76"/><circle cx="316.7" cy="0.3" r="1.1" fill="#8E1B15" fill-opacity="0.82"/><circle cx="394.3" cy="4.3" r="2.4" fill="#B3261E" fill-opacity="0.93"/><circle cx="29.4" cy="2.8" r="1.1" fill="#B3261E" fill-opacity="0.92"/><circle cx="220.5" cy="0.0" r="2.0" fill="#8E1B15" fill-opacity="0.97"/><circle cx="23.2" cy="6.2" r="1.1" fill="#8E1B15" fill-opacity="0.95"/><circle cx="264.0" cy="4.4" r="1.7" fill="#B3261E" fill-opacity="0.69"/><circle cx="310.2" cy="8.5" r="1.4" fill="#8E1B15" fill-opacity="0.80"/><circle cx="161.6" cy="1.2" r="1.7" fill="#C93A2C" fill-opacity="0.85"/><circle cx="216.4" cy="0.0" r="2.0" fill="#8E1B15" fill-opacity="0.81"/><circle cx="249.2" cy="5.8" r="1.1" fill="#B3261E" fill-opacity="0.84"/><circle cx="137.8" cy="1.4" r="1.7" fill="#B3261E" fill-opacity="0.72"/><circle cx="197.0" cy="5.1" r="0.7" fill="#B3261E" fill-opacity="0.91"/><circle cx="376.9" cy="0.3" r="0.9" fill="#B3261E" fill-opacity="0.94"/><circle cx="335.0" cy="4.5" r="1.1" fill="#B3261E" fill-opacity="0.71"/><circle cx="16.1" cy="2.3" r="1.7" fill="#B3261E" fill-opacity="0.81"/><circle cx="225.3" cy="11.0" r="0.9" fill="#8E1B15" fill-opacity="0.75"/><circle cx="270.4" cy="0.2" r="1.7" fill="#8E1B15" fill-opacity="0.93"/><circle cx="206.1" cy="1.3" r="2.4" fill="#8E1B15" fill-opacity="0.95"/><circle cx="323.7" cy="5.1" r="0.7" fill="#B3261E" fill-opacity="0.93"/><circle cx="75.0" cy="2.2" r="1.1" fill="#B3261E" fill-opacity="0.94"/><circle cx="49.3" cy="0.8" r="1.4" fill="#B3261E" fill-opacity="0.95"/><circle cx="259.2" cy="11.7" r="0.7" fill="#B3261E" fill-opacity="1.00"/><circle cx="86.8" cy="6.4" r="2.0" fill="#B3261E" fill-opacity="0.85"/><circle cx="417.6" cy="2.7" r="2.4" fill="#B3261E" fill-opacity="0.89"/><circle cx="354.8" cy="12.7" r="2.0" fill="#C93A2C" fill-opacity="0.72"/><circle cx="88.0" cy="8.9" r="0.9" fill="#C93A2C" fill-opacity="0.81"/><circle cx="54.2" cy="0.4" r="1.1" fill="#C93A2C" fill-opacity="0.87"/><circle cx="129.0" cy="0.0" r="0.7" fill="#B3261E" fill-opacity="0.91"/><circle cx="151.3" cy="1.9" r="1.4" fill="#B3261E" fill-opacity="0.70"/><circle cx="265.1" cy="3.3" r="2.4" fill="#C93A2C" fill-opacity="0.79"/><circle cx="191.9" cy="4.4" r="0.7" fill="#B3261E" fill-opacity="0.83"/><circle cx="175.5" cy="4.2" r="0.7" fill="#B3261E" fill-opacity="0.69"/><circle cx="368.3" cy="12.9" r="0.7" fill="#8E1B15" fill-opacity="0.73"/><circle cx="200.5" cy="0.9" r="1.4" fill="#C93A2C" fill-opacity="0.73"/><circle cx="268.7" cy="2.5" r="1.1" fill="#B3261E" fill-opacity="0.85"/><circle cx="276.6" cy="1.5" r="2.0" fill="#B3261E" fill-opacity="0.89"/><circle cx="102.8" cy="3.1" r="0.9" fill="#C93A2C" fill-opacity="0.96"/><circle cx="105.7" cy="3.2" r="1.1" fill="#B3261E" fill-opacity="0.94"/><circle cx="357.1" cy="5.7" r="1.7" fill="#B3261E" fill-opacity="0.81"/><circle cx="87.9" cy="9.4" r="0.7" fill="#B3261E" fill-opacity="0.66"/><circle cx="247.9" cy="7.6" r="2.4" fill="#B3261E" fill-opacity="0.88"/><circle cx="65.4" cy="0.2" r="0.9" fill="#8E1B15" fill-opacity="0.83"/><circle cx="201.4" cy="6.8" r="0.7" fill="#B3261E" fill-opacity="0.99"/><circle cx="416.9" cy="2.9" r="2.4" fill="#B3261E" fill-opacity="0.88"/><circle cx="294.4" cy="13.9" r="0.7" fill="#8E1B15" fill-opacity="0.88"/><circle cx="331.9" cy="12.4" r="1.7" fill="#C93A2C" fill-opacity="0.72"/><circle cx="155.4" cy="0.5" r="1.4" fill="#B3261E" fill-opacity="0.91"/><circle cx="35.1" cy="0.7" r="2.0" fill="#C93A2C" fill-opacity="0.93"/><circle cx="380.6" cy="7.0" r="2.0" fill="#8E1B15" fill-opacity="0.92"/><circle cx="50.3" cy="3.9" r="0.7" fill="#B3261E" fill-opacity="0.95"/><circle cx="396.7" cy="11.6" r="0.7" fill="#B3261E" fill-opacity="0.77"/><circle cx="225.1" cy="4.8" r="0.7" fill="#B3261E" fill-opacity="0.76"/><circle cx="213.1" cy="0.4" r="1.7" fill="#B3261E" fill-opacity="0.70"/><circle cx="37.1" cy="4.5" r="1.1" fill="#B3261E" fill-opacity="0.92"/><circle cx="103.6" cy="3.1" r="0.7" fill="#B3261E" fill-opacity="0.86"/><circle cx="71.5" cy="0.3" r="0.9" fill="#B3261E" fill-opacity="0.93"/><circle cx="211.6" cy="0.5" r="1.7" fill="#C93A2C" fill-opacity="0.71"/><circle cx="259.6" cy="13.1" r="2.0" fill="#B3261E" fill-opacity="0.79"/><circle cx="4.5" cy="0.6" r="2.4" fill="#B3261E" fill-opacity="0.91"/><circle cx="299.3" cy="0.6" r="1.7" fill="#C93A2C" fill-opacity="0.66"/><circle cx="46.3" cy="1.8" r="1.7" fill="#B3261E" fill-opacity="0.79"/><circle cx="125.8" cy="1.0" r="1.7" fill="#B3261E" fill-opacity="0.88"/><circle cx="176.1" cy="11.6" r="0.9" fill="#C93A2C" fill-opacity="0.98"/><circle cx="238.5" cy="4.3" r="0.7" fill="#8E1B15" fill-opacity="0.87"/><circle cx="112.3" cy="5.9" r="0.9" fill="#B3261E" fill-opacity="0.68"/><circle cx="332.5" cy="2.8" r="2.0" fill="#8E1B15" fill-opacity="0.77"/><circle cx="49.1" cy="1.9" r="1.7" fill="#B3261E" fill-opacity="0.71"/><circle cx="160.5" cy="2.0" r="2.4" fill="#B3261E" fill-opacity="0.89"/><circle cx="299.5" cy="0.0" r="1.1" fill="#8E1B15" fill-opacity="0.98"/><circle cx="218.3" cy="4.7" r="2.0" fill="#B3261E" fill-opacity="0.78"/><circle cx="249.2" cy="0.3" r="2.0" fill="#C93A2C" fill-opacity="0.78"/><circle cx="103.4" cy="13.1" r="2.0" fill="#B3261E" fill-opacity="0.94"/><circle cx="88.1" cy="8.8" r="0.7" fill="#B3261E" fill-opacity="0.71"/><circle cx="49.5" cy="8.8" r="1.1" fill="#B3261E" fill-opacity="0.95"/><circle cx="89.6" cy="5.7" r="2.4" fill="#8E1B15" fill-opacity="0.88"/><circle cx="156.8" cy="0.2" r="1.7" fill="#B3261E" fill-opacity="0.68"/><circle cx="413.3" cy="10.2" r="1.1" fill="#B3261E" fill-opacity="0.76"/><circle cx="344.1" cy="9.3" r="2.0" fill="#B3261E" fill-opacity="0.67"/><circle cx="320.7" cy="0.1" r="1.7" fill="#B3261E" fill-opacity="0.84"/><circle cx="389.5" cy="6.5" r="0.7" fill="#C93A2C" fill-opacity="0.98"/><circle cx="316.1" cy="5.5" r="0.7" fill="#8E1B15" fill-opacity="0.80"/><circle cx="285.5" cy="13.6" r="2.4" fill="#B3261E" fill-opacity="0.71"/><circle cx="35.1" cy="7.4" r="0.9" fill="#8E1B15" fill-opacity="0.91"/><circle cx="284.4" cy="9.6" r="1.4" fill="#B3261E" fill-opacity="0.96"/><circle cx="305.6" cy="10.3" r="2.4" fill="#B3261E" fill-opacity="0.88"/><circle cx="230.2" cy="0.3" r="0.7" fill="#8E1B15" fill-opacity="0.76"/><circle cx="400.6" cy="5.2" r="2.4" fill="#B3261E" fill-opacity="0.68"/><circle cx="136.1" cy="0.5" r="0.7" fill="#B3261E" fill-opacity="0.96"/><circle cx="198.4" cy="0.0" r="1.4" fill="#8E1B15" fill-opacity="0.72"/><circle cx="295.2" cy="4.2" r="1.4" fill="#8E1B15" fill-opacity="0.83"/><circle cx="202.3" cy="5.1" r="2.4" fill="#B3261E" fill-opacity="0.92"/><circle cx="136.1" cy="0.0" r="2.4" fill="#B3261E" fill-opacity="0.88"/><circle cx="158.3" cy="9.6" r="2.0" fill="#8E1B15" fill-opacity="0.81"/><circle cx="247.3" cy="3.8" r="2.4" fill="#C93A2C" fill-opacity="0.70"/><circle cx="295.6" cy="2.9" r="0.7" fill="#8E1B15" fill-opacity="0.73"/><circle cx="109.7" cy="8.2" r="1.7" fill="#B3261E" fill-opacity="0.74"/><circle cx="27.0" cy="10.1" r="1.4" fill="#B3261E" fill-opacity="0.90"/><circle cx="181.7" cy="6.2" r="1.7" fill="#B3261E" fill-opacity="0.99"/><circle cx="382.0" cy="3.7" r="1.4" fill="#B3261E" fill-opacity="0.73"/><circle cx="316.3" cy="0.3" r="1.1" fill="#C93A2C" fill-opacity="0.95"/><circle cx="14.7" cy="7.6" r="1.7" fill="#B3261E" fill-opacity="0.84"/><circle cx="139.9" cy="0.6" r="2.4" fill="#B3261E" fill-opacity="0.93"/><circle cx="41.0" cy="9.3" r="0.9" fill="#B3261E" fill-opacity="0.95"/><circle cx="309.8" cy="2.3" r="0.9" fill="#B3261E" fill-opacity="0.85"/><circle cx="377.7" cy="12.2" r="2.0" fill="#B3261E" fill-opacity="0.78"/><circle cx="399.4" cy="8.0" r="1.1" fill="#C93A2C" fill-opacity="0.95"/><circle cx="305.3" cy="1.5" r="0.9" fill="#B3261E" fill-opacity="0.66"/><circle cx="225.6" cy="1.4" r="1.1" fill="#B3261E" fill-opacity="0.74"/><circle cx="55.3" cy="4.1" r="1.1" fill="#B3261E" fill-opacity="0.75"/><circle cx="116.6" cy="4.4" r="2.4" fill="#8E1B15" fill-opacity="0.71"/><circle cx="361.0" cy="10.7" r="1.7" fill="#B3261E" fill-opacity="0.84"/><circle cx="308.2" cy="4.8" r="2.0" fill="#C93A2C" fill-opacity="0.92"/><circle cx="109.1" cy="0.1" r="2.4" fill="#B3261E" fill-opacity="0.88"/><circle cx="227.9" cy="4.0" r="2.0" fill="#B3261E" fill-opacity="0.77"/><circle cx="90.8" cy="6.6" r="1.1" fill="#C93A2C" fill-opacity="0.90"/><circle cx="371.9" cy="0.2" r="1.7" fill="#B3261E" fill-opacity="0.85"/><circle cx="389.2" cy="8.4" r="1.1" fill="#B3261E" fill-opacity="0.69"/><circle cx="237.5" cy="0.4" r="1.1" fill="#B3261E" fill-opacity="0.77"/><circle cx="59.2" cy="12.8" r="2.0" fill="#B3261E" fill-opacity="0.70"/><circle cx="173.6" cy="0.5" r="2.0" fill="#C93A2C" fill-opacity="0.84"/><circle cx="183.4" cy="7.3" r="0.7" fill="#C93A2C" fill-opacity="0.89"/><circle cx="257.3" cy="12.3" r="2.0" fill="#B3261E" fill-opacity="0.80"/><circle cx="204.1" cy="0.2" r="1.4" fill="#B3261E" fill-opacity="0.85"/><circle cx="408.5" cy="5.2" r="0.9" fill="#B3261E" fill-opacity="0.74"/><circle cx="92.2" cy="1.5" r="0.9" fill="#C93A2C" fill-opacity="0.98"/><circle cx="388.6" cy="10.8" r="2.4" fill="#B3261E" fill-opacity="0.86"/><circle cx="334.1" cy="13.9" r="1.7" fill="#C93A2C" fill-opacity="0.96"/><circle cx="132.8" cy="0.7" r="2.4" fill="#C93A2C" fill-opacity="0.70"/><circle cx="383.5" cy="0.3" r="1.1" fill="#B3261E" fill-opacity="0.99"/><circle cx="10.1" cy="0.0" r="2.4" fill="#B3261E" fill-opacity="0.89"/><circle cx="218.3" cy="5.5" r="2.4" fill="#B3261E" fill-opacity="0.65"/><circle cx="28.5" cy="9.5" r="1.4" fill="#B3261E" fill-opacity="0.79"/><circle cx="140.9" cy="2.3" r="0.7" fill="#B3261E" fill-opacity="0.74"/><circle cx="246.0" cy="4.7" r="1.1" fill="#C93A2C" fill-opacity="0.89"/><circle cx="191.1" cy="1.2" r="1.4" fill="#B3261E" fill-opacity="0.72"/><circle cx="88.8" cy="3.6" r="0.9" fill="#B3261E" fill-opacity="0.71"/><circle cx="284.8" cy="6.0" r="1.7" fill="#C93A2C" fill-opacity="0.85"/><circle cx="240.8" cy="0.0" r="1.1" fill="#B3261E" fill-opacity="0.67"/><circle cx="214.1" cy="8.4" r="0.9" fill="#B3261E" fill-opacity="0.93"/><circle cx="226.8" cy="0.2" r="2.4" fill="#C93A2C" fill-opacity="0.74"/><circle cx="91.5" cy="3.1" r="0.9" fill="#B3261E" fill-opacity="0.88"/><circle cx="29.4" cy="0.2" r="2.4" fill="#8E1B15" fill-opacity="1.00"/><circle cx="176.0" cy="7.1" r="0.9" fill="#B3261E" fill-opacity="1.00"/><circle cx="86.9" cy="11.9" r="1.7" fill="#C93A2C" fill-opacity="0.98"/><circle cx="28.6" cy="13.4" r="0.7" fill="#B3261E" fill-opacity="0.82"/><circle cx="159.8" cy="0.1" r="0.9" fill="#B3261E" fill-opacity="0.67"/><circle cx="67.1" cy="4.2" r="0.9" fill="#B3261E" fill-opacity="0.77"/><circle cx="390.9" cy="0.5" r="2.0" fill="#B3261E" fill-opacity="0.98"/><circle cx="80.9" cy="0.5" r="2.0" fill="#B3261E" fill-opacity="0.96"/><circle cx="305.1" cy="12.8" r="1.4" fill="#B3261E" fill-opacity="0.78"/><circle cx="50.5" cy="1.5" r="2.4" fill="#B3261E" fill-opacity="0.99"/><circle cx="304.7" cy="7.2" r="0.7" fill="#B3261E" fill-opacity="0.76"/><circle cx="244.6" cy="1.5" r="1.7" fill="#C93A2C" fill-opacity="0.94"/></svg>